<svg id="Ebene_1" data-name="Ebene 1" xmlns="http://www.w3.org/2000/svg" viewBox="0 0 1032.3 450"><defs><style>.cls-1{fill:#63adec;}.cls-2{fill:#fff;}.cls-3{fill:none;opacity:0.2;}</style></defs><path class="cls-1" d="M354.6,360.4a10.8,10.8,0,0,1,5.2-1.2,10.9,10.9,0,0,1,6.2,1.7,11.4,11.4,0,0,1,4.4,4.8,17.2,17.2,0,0,1,0,14.5,12.3,12.3,0,0,1-4.4,4.9,10.9,10.9,0,0,1-6.2,1.7,10.8,10.8,0,0,1-5.2-1.1,11,11,0,0,1-3.6-3.1v3.8h-6.8V350.6H351v12.9A8.5,8.5,0,0,1,354.6,360.4Zm9.5,8.3a7.5,7.5,0,0,0-2.6-2.7,7,7,0,0,0-3.5-.9,5.9,5.9,0,0,0-3.4,1,7,7,0,0,0-2.7,2.7,10.2,10.2,0,0,0,0,8.4,8.1,8.1,0,0,0,2.7,2.8,6.7,6.7,0,0,0,3.4.9,7.1,7.1,0,0,0,6.1-3.7,8.3,8.3,0,0,0,1-4.3A8.2,8.2,0,0,0,364.1,368.7Z"/><path class="cls-1" d="M409.1,359.6v26.8h-6.9V383a8.6,8.6,0,0,1-3.4,2.8,12.2,12.2,0,0,1-10.1-.4,9.5,9.5,0,0,1-3.8-3.9,13.2,13.2,0,0,1-1.4-6.2V359.6h6.8v14.8a6.9,6.9,0,0,0,1.6,4.9,5.6,5.6,0,0,0,4.3,1.7,5.7,5.7,0,0,0,4.4-1.7,6.9,6.9,0,0,0,1.6-4.9V359.6Z"/><path class="cls-1" d="M423,355.3a3.8,3.8,0,0,1-1.2-2.9,3.8,3.8,0,0,1,1.2-2.8,4.2,4.2,0,0,1,2.9-1.1,4.4,4.4,0,0,1,3,1.1,3.8,3.8,0,0,1,1.2,2.8,3.8,3.8,0,0,1-1.2,2.9,4.4,4.4,0,0,1-3,1.1A4.2,4.2,0,0,1,423,355.3Zm6.3,4.3v26.8h-6.8V359.6Z"/><path class="cls-1" d="M449.5,350.6v35.8h-6.8V350.6Z"/><path class="cls-1" d="M462.8,365.7a11.6,11.6,0,0,1,4.5-4.8,10.9,10.9,0,0,1,6.2-1.7,12.5,12.5,0,0,1,5,1.1,11.5,11.5,0,0,1,3.8,3V350.6h6.8v35.8h-6.8v-4a9.3,9.3,0,0,1-3.6,3.2,11.2,11.2,0,0,1-5.3,1.2,10.8,10.8,0,0,1-6.1-1.7,12.5,12.5,0,0,1-4.5-4.9,17.2,17.2,0,0,1,0-14.5Zm18.5,3.1a6.2,6.2,0,0,0-2.6-2.7,6.4,6.4,0,0,0-3.5-1,7,7,0,0,0-3.5.9,8.4,8.4,0,0,0-2.6,2.7,9.3,9.3,0,0,0,0,8.4,7.1,7.1,0,0,0,2.6,2.8,6.4,6.4,0,0,0,3.5,1,7.3,7.3,0,0,0,3.5-.9,7,7,0,0,0,2.6-2.8,7.7,7.7,0,0,0,1-4.2A8.2,8.2,0,0,0,481.3,368.8Z"/><path class="cls-1" d="M533.1,365.2h-4.7v21.2h-6.9V365.2h-3v-5.6h3v-1.3c0-3.3,1-5.8,2.8-7.3s4.7-2.3,8.5-2.2v5.7a5,5,0,0,0-3.4.9c-.7.5-1,1.6-1,3.1v1.1h4.7Z"/><path class="cls-1" d="M544.2,365.7a10.8,10.8,0,0,1,4.4-4.8,10.9,10.9,0,0,1,6.2-1.7,10.8,10.8,0,0,1,8.8,4.2v-3.8h6.9v26.8h-6.9v-3.9a9.2,9.2,0,0,1-3.6,3.1,11.2,11.2,0,0,1-5.3,1.2,10.8,10.8,0,0,1-6.1-1.7,11.6,11.6,0,0,1-4.4-4.9,16.3,16.3,0,0,1,0-14.5Zm18.5,3.1a7,7,0,0,0-2.7-2.7,6,6,0,0,0-3.5-1,7.3,7.3,0,0,0-3.5.9,9.6,9.6,0,0,0-2.6,2.7,10.2,10.2,0,0,0,0,8.4,6.7,6.7,0,0,0,2.7,2.8,5.9,5.9,0,0,0,3.4,1,6.8,6.8,0,0,0,3.5-.9,8.1,8.1,0,0,0,2.7-2.8,8.7,8.7,0,0,0,.9-4.2A9.3,9.3,0,0,0,562.7,368.8Z"/><path class="cls-1" d="M588.2,385.7a10.4,10.4,0,0,1-4.1-3.3,8,8,0,0,1-1.7-4.5h6.8a3.9,3.9,0,0,0,1.5,2.6,6.5,6.5,0,0,0,6.4.3,2.6,2.6,0,0,0,1.1-2,2.1,2.1,0,0,0-1.4-2,25,25,0,0,0-4.2-1.4,42.3,42.3,0,0,1-4.9-1.5,7.8,7.8,0,0,1-3.3-2.4,6.5,6.5,0,0,1-1.4-4.3,7.6,7.6,0,0,1,1.3-4.1,9.1,9.1,0,0,1,3.7-2.9,14,14,0,0,1,5.6-1,11.6,11.6,0,0,1,7.7,2.4,8.8,8.8,0,0,1,3.1,6.4h-6.5a3.4,3.4,0,0,0-1.3-2.5,5.1,5.1,0,0,0-3.2-1,5.5,5.5,0,0,0-2.8.7,2.2,2.2,0,0,0-1,1.9,2.4,2.4,0,0,0,1.4,2.1,28.7,28.7,0,0,0,4.2,1.4l4.8,1.5a8.2,8.2,0,0,1,3.2,2.4,7.2,7.2,0,0,1,1.5,4.3,7.4,7.4,0,0,1-1.3,4.1,8.3,8.3,0,0,1-3.7,2.9,14,14,0,0,1-5.6,1A13.8,13.8,0,0,1,588.2,385.7Z"/><path class="cls-1" d="M624.9,365.2v12.9a2.8,2.8,0,0,0,.6,2,3.4,3.4,0,0,0,2.2.6h3.2v5.7h-4.3c-5.7,0-8.5-2.8-8.5-8.3V365.2h-3.2v-5.6h3.2V353h6.8v6.6h6v5.6Z"/><path class="cls-1" d="M667.3,375H647.7a6.4,6.4,0,0,0,2,4.6,6.3,6.3,0,0,0,4.4,1.6,5.5,5.5,0,0,0,5.4-3.2h7.3a12.6,12.6,0,0,1-4.5,6.4,14.9,14.9,0,0,1-15,.7,12.3,12.3,0,0,1-4.8-4.8,16.5,16.5,0,0,1,0-14.6,11.5,11.5,0,0,1,4.7-4.8,13.7,13.7,0,0,1,7-1.7,14.1,14.1,0,0,1,6.9,1.6,11.8,11.8,0,0,1,4.7,4.7,14.1,14.1,0,0,1,1.7,6.9A18.4,18.4,0,0,1,667.3,375Zm-6.9-4.5a5.2,5.2,0,0,0-1.9-4.2,6.9,6.9,0,0,0-4.5-1.6,6,6,0,0,0-4.2,1.6,7,7,0,0,0-2.1,4.2Z"/><path class="cls-1" d="M689.3,360.4a9.6,9.6,0,0,1,4.9-1.2v7.1h-1.8q-3.3,0-4.8,1.5c-1.1,1-1.7,2.8-1.7,5.3v13.3h-6.7V359.6h6.7v4.2A10.1,10.1,0,0,1,689.3,360.4Z"/><rect class="cls-2" x="372.2" y="224.2" width="41" height="113.27" rx="20.5" transform="translate(673.5 -111.9) rotate(90)"/><rect class="cls-2" x="372.2" y="114.2" width="41" height="113.27" rx="20.5" transform="translate(563.6 -221.9) rotate(90)"/><rect class="cls-2" x="361.1" y="180.4" width="41" height="90.89" rx="20.5" transform="translate(607.4 -155.7) rotate(90)"/><path class="cls-2" d="M290.5,151.5h0a21.4,21.4,0,0,0-28.8,9.4l-36.3,71.3-36-70.6a21.4,21.4,0,1,0-38.2,19.5l55.1,108a21.4,21.4,0,0,0,28.8,9.3h0a19.7,19.7,0,0,0,8-7.1,21.3,21.3,0,0,0,1.6-2.5l55.2-108.4A21.5,21.5,0,0,0,290.5,151.5Z"/><path class="cls-2" d="M837.3,225.1,877,185.4a20.8,20.8,0,0,0-29.4-29.3L808,195.7l-39.7-39.6a20.7,20.7,0,0,0-29.3,0h0a20.7,20.7,0,0,0,0,29.3l39.6,39.7L739,264.7a20.8,20.8,0,0,0,0,29.4h0a20.7,20.7,0,0,0,29.3,0L808,254.5l39.6,39.6A20.8,20.8,0,0,0,877,264.7Z"/><path class="cls-1" d="M640.1,302.7a78,78,0,1,1,55.2-22.8h0A77.5,77.5,0,0,1,640.1,302.7Zm0-118.6a40.6,40.6,0,1,0,28.7,69.3h0a40.6,40.6,0,0,0-28.7-69.3Z"/><path class="cls-1" d="M525.9,92.2a20.4,20.4,0,0,0-13.8-5.3H471a20.8,20.8,0,0,0,0,41.6h19.9V281a21.4,21.4,0,0,0,21.4,21.4h.1A21.4,21.4,0,0,0,533.8,281V108.8A21.4,21.4,0,0,0,525.9,92.2Z"/><path class="cls-3" d="M839.9,75.7l38.7-38.6A20.3,20.3,0,0,0,850,8.4L811.3,47.1,772.7,8.4a20.3,20.3,0,0,0-28.7,0h0a20.3,20.3,0,0,0,0,28.7l38.7,38.6L744,114.4a20.2,20.2,0,0,0,0,28.6h0a20.3,20.3,0,0,0,28.7,0l38.6-38.6L850,143a20.2,20.2,0,0,0,28.6-28.6Z"/><path class="cls-3" d="M839.9,376.9l38.7-38.6A20.2,20.2,0,0,0,850,309.7l-38.7,38.6-38.6-38.6a20.2,20.2,0,0,0-28.7,0h0a20.2,20.2,0,0,0,0,28.6l38.7,38.6L744,415.6a20.2,20.2,0,0,0,0,28.6h0a20.3,20.3,0,0,0,28.7,0l38.6-38.6L850,444.2a20.2,20.2,0,0,0,28.6-28.6Z"/><path class="cls-3" d="M987.9,226.3l38.7-38.6a20.3,20.3,0,1,0-28.7-28.6l-38.6,38.6-38.7-38.6a20,20,0,0,0-28.6,0h0a20.2,20.2,0,0,0,0,28.6l38.6,38.6L892,265a20.2,20.2,0,0,0,0,28.6h0a20.2,20.2,0,0,0,28.6,0L959.3,255l38.6,38.6a20.3,20.3,0,1,0,28.7-28.6Z"/><path class="cls-3" d="M102.8,226.3l38.6-38.6a20.2,20.2,0,1,0-28.6-28.6L74.1,197.7,35.5,159.1a20,20,0,0,0-28.6,0h0a20,20,0,0,0,0,28.6l38.6,38.6L6.9,265a20,20,0,0,0,0,28.6h0a20.2,20.2,0,0,0,28.6,0L74.1,255l38.7,38.6A20.2,20.2,0,0,0,141.4,265Z"/></svg>